<svg fill="#fff" id="Layer_1" enable-background="new 0 0 512 512" height="512" viewBox="0 0 512 512" width="512" xmlns="http://www.w3.org/2000/svg"><path d="m426.345 455.759c-3.801-28.188-43.897-41.174-79.272-52.632-14.175-4.591-35.596-11.529-38.165-16.046-2.288-4.023-4.967-16.846-5.973-40.899 22.019-10.097 48.233-44.744 52.402-87.238 16.218-.305 29.32-13.599 29.32-29.909 0-16.106-12.776-29.274-28.713-29.894 0-22.644.677-31.172-2.339-44.233-3.004-13.006-8.791-24.953-16.689-35.186 2.59-3.435 6.444-6.489 11.53-9.106 3.928-2.022 5.474-6.846 3.452-10.774s-6.846-5.473-10.774-3.452c-6.23 3.206-11.295 7.041-15.164 11.453-3.996-3.631-8.316-6.909-12.906-9.792 2.281-3.868 5.214-7.179 6.521-8.463 3.155-3.08 3.224-8.134.15-11.299-3.079-3.169-8.144-3.242-11.313-.164-.734.713-5.722 5.689-9.624 12.629-6.106-2.47-12.538-4.295-19.212-5.392 2.026-6.067 4.825-10.171 4.924-10.314 2.542-3.597 1.697-8.576-1.894-11.132-3.599-2.564-8.594-1.723-11.157 1.876-.26.365-5.418 7.706-8.195 18.357h-14.505c-2.778-10.651-7.935-17.992-8.195-18.357-2.562-3.599-7.558-4.439-11.157-1.876s-4.439 7.558-1.876 11.157c.039.054 2.866 4.163 4.909 10.289-6.675 1.097-13.107 2.922-19.214 5.393-3.902-6.939-8.89-11.916-9.624-12.629-3.17-3.08-8.235-3.005-11.313.164-3.079 3.169-3.005 8.234.164 11.313 1.216 1.182 4.191 4.528 6.505 8.45-4.59 2.883-8.91 6.16-12.904 9.791-3.869-4.412-8.935-8.247-15.164-11.453-3.928-2.02-8.752-.476-10.774 3.452-2.022 3.929-.476 8.752 3.452 10.774 5.086 2.618 8.94 5.671 11.53 9.106-21.46 27.801-19.028 52.097-19.028 79.418-15.937.62-28.713 13.788-28.713 29.894 0 16.31 13.102 29.604 29.32 29.909 4.171 42.514 30.401 77.149 52.402 87.238-1.007 24.053-3.686 36.875-5.973 40.899-2.569 4.517-23.99 11.455-38.165 16.046-35.376 11.458-75.472 24.445-79.272 52.632-4.568 33.874-1.856 49.078-1.739 49.708.707 3.787 4.012 6.533 7.864 6.533h328.438c3.853 0 7.158-2.746 7.864-6.533.115-.631 2.826-15.834-1.741-49.708zm-179.103-355.612h17.517c36.569 0 68.211 26.635 74.18 63.143-8.209-9.139-18.186-14.565-29.755-10.707-13.229 4.417-27.899 4.932-37.87 4.59-28.387-.98-45.049 2.499-66.276-4.59-8.569-2.861-20.128-1.74-32.403 13.763 4.572-37.573 36.498-66.199 74.607-66.199zm121.414 128.887c0 7.281-5.603 13.275-12.713 13.874v-27.748c7.11.598 12.713 6.592 12.713 13.874zm-225.312 0c0-7.282 5.603-13.276 12.713-13.875v27.749c-7.11-.598-12.713-6.593-12.713-13.874zm28.713 17.495c0-9.173 0-35.953 0-46.879 9.582-22.265 20.22-34.457 27.912-31.89 15.49 5.173 32.201 5.795 43.489 5.404 26.919-.929 46.683 2.646 70.791-5.403 7.078-2.365 16.633 7.691 25.692 26.955v51.813c0 28.974-11.248 56.223-31.672 76.726-4.518 4.535-9.803 7.849-16.072 9.955-8.798 2.945-10.285 2.115-59.387 2.134-10.872 0-21.278-4.254-29.082-12.088-20.422-20.505-31.671-47.753-31.671-76.727zm240.832 249.471h-45.408v-20.849c0-4.418-3.582-8-8-8s-8 3.582-8 8v20.849h-190.962v-20.849c0-4.418-3.582-8-8-8s-8 3.582-8 8v20.849h-45.406c-.28-6.874-.136-19.305 2.399-38.103 2.455-18.207 40.539-30.542 68.346-39.549 26.507-8.585 41.766-13.903 47.143-23.358 4.107-7.222 6.749-22.069 7.873-44.202 6.673.924 7.06.394 54.314.556 2.518 0 5.46-.213 7.937-.556 1.125 22.133 3.766 36.98 7.873 44.202 5.377 9.455 20.636 14.772 47.143 23.358 27.807 9.007 65.891 21.342 68.346 39.55 2.537 18.807 2.68 31.241 2.402 38.102z"/><path d="m237.517 34.887c22.119 15.11 15.524 14.233 36.966 0 3.648-2.493 4.585-7.47 2.092-11.119-2.492-3.647-7.469-4.584-11.119-2.092l-1.456.995v-14.671c0-4.418-3.582-8-8-8s-8 3.582-8 8v14.671l-1.457-.995c-3.649-2.494-8.626-1.556-11.119 2.092-2.492 3.649-1.555 8.626 2.093 11.119z"/><path d="m134.106 68.269-1.784.015c-4.418.038-7.969 3.65-7.931 8.068.039 4.52 3.808 8.022 8.068 7.931 25.961-.221 21.14 3.049 30.352-21.113 1.575-4.128-.494-8.751-4.622-10.326-4.126-1.574-8.751.494-10.326 4.622l-.631 1.654-8.345-12.034c-2.518-3.631-7.504-4.534-11.132-2.016-3.631 2.518-4.533 7.502-2.016 11.133z"/><path d="m379.54 84.283c4.259.089 8.029-3.409 8.068-7.931.038-4.418-3.513-8.03-7.931-8.068l-1.784-.015 8.368-12.067c2.518-3.63 1.615-8.615-2.016-11.133-3.629-2.516-8.615-1.616-11.132 2.016l-8.345 12.034-.631-1.654c-1.575-4.128-6.199-6.197-10.326-4.622-4.128 1.575-6.197 6.198-4.622 10.326 9.277 24.308 4.532 20.894 30.351 21.114z"/><path d="m208.029 133.698c.854 3.699 4.146 6.201 7.788 6.201 5.144 0 8.961-4.787 7.801-9.803-1.09-4.717-3.986-9.703-8.608-14.817-2.961-3.277-8.02-3.533-11.299-.571-3.278 2.962-3.534 8.021-.571 11.299 2.617 2.897 4.445 5.772 4.889 7.691z"/><path d="m294.376 139.691c4.336 1.002 8.608-1.72 9.596-5.993.443-1.919 2.271-4.794 4.89-7.69 2.963-3.278 2.708-8.336-.57-11.299s-8.337-2.708-11.299.57c-4.623 5.114-7.519 10.099-8.609 14.817-.996 4.304 1.687 8.6 5.992 9.595z"/><path d="m240.301 137.35c4.275 1.005 8.601-1.633 9.617-5.959.188-.801 1.817-8.073 1.121-16.666-.356-4.404-4.213-7.688-8.62-7.327-4.404.357-7.685 4.216-7.327 8.62.497 6.128-.733 11.644-.755 11.738-.996 4.293 1.67 8.585 5.964 9.594z"/><path d="m272.108 137.552c5.159 0 8.95-4.797 7.809-9.795-.012-.055-1.253-5.588-.755-11.739.357-4.404-2.923-8.263-7.327-8.62-4.408-.361-8.263 2.924-8.62 7.327-.697 8.592.933 15.865 1.121 16.666.864 3.683 4.144 6.161 7.772 6.161z"/><path d="m238.789 217.745c0-4.418-3.582-8-8-8h-21.796c-4.418 0-8 3.582-8 8s3.582 8 8 8h21.796c4.419 0 8-3.581 8-8z"/><path d="m224.99 247.8c8.545-1.676 8.54-14.005 0-15.68-4.843-.987-9.56 2.722-9.56 7.84 0 5.144 4.777 8.85 9.56 7.84z"/><path d="m281.21 225.745h21.796c4.418 0 8-3.582 8-8s-3.582-8-8-8h-21.796c-4.418 0-8 3.582-8 8s3.582 8 8 8z"/><path d="m287.01 232.12c-6.996 1.374-8.756 10.616-2.88 14.49 5.458 3.599 12.44-.391 12.44-6.65 0-5.061-4.66-8.839-9.56-7.84z"/><path d="m233.338 294.927c-1.797 4.036.017 8.766 4.053 10.563 4.421 1.662 9.621 5.417 18.609 5.417s14.216-3.766 18.609-5.417c4.036-1.797 5.851-6.527 4.053-10.563-1.797-4.036-6.525-5.849-10.563-4.053-11.613 5.173-11.195 5.791-24.198 0-4.038-1.799-8.765.017-10.563 4.053z"/></svg>